<svg width="46" height="46" viewBox="0 0 46 46" fill="none" xmlns="http://www.w3.org/2000/svg">
<path d="M14.2991 37.0683H10.619C4.984 36.6658 2.4541 32.3342 2.4541 28.4817C2.4541 24.6292 4.98403 20.2784 10.5232 19.895C11.309 19.8184 11.999 20.4317 12.0565 21.2367C12.114 22.0225 11.5199 22.7125 10.7149 22.77C6.9966 23.0384 5.3291 25.8367 5.3291 28.5008C5.3291 31.165 6.9966 33.9634 10.7149 34.2317H14.2991C15.0849 34.2317 15.7366 34.8834 15.7366 35.6692C15.7366 36.455 15.0849 37.0683 14.2991 37.0683Z" fill="#292D32"/>
<path d="M31.9502 37.0684C31.9119 37.0684 31.8927 37.0684 31.8544 37.0684C31.0686 37.0684 30.3403 36.4167 30.3403 35.6309C30.3403 34.8067 30.9536 34.1934 31.7586 34.1934C34.1161 34.1934 36.2244 33.3692 37.8728 31.8934C40.8628 29.2867 41.0544 25.53 40.2494 22.885C39.4444 20.2592 37.2019 17.25 33.2919 16.7709C32.6594 16.6942 32.161 16.2151 32.046 15.5826C31.2794 10.9826 28.8069 7.80088 25.0503 6.65088C21.1786 5.44338 16.6552 6.63171 13.8377 9.58338C11.0969 12.4392 10.4644 16.4451 12.0552 20.8534C12.3236 21.6009 11.9403 22.425 11.1928 22.6934C10.4453 22.9617 9.6211 22.5784 9.35277 21.8309C7.41694 16.4259 8.29862 11.2509 11.7678 7.60921C15.3136 3.89088 21.0061 2.41503 25.8936 3.91003C30.3786 5.29003 33.541 8.9892 34.691 14.1259C38.601 15.0075 41.7444 17.9784 42.9902 22.0801C44.3511 26.5459 43.1244 31.1459 39.7703 34.0592C37.6428 35.9759 34.8636 37.0684 31.9502 37.0684Z" fill="#292D32"/>
<path d="M23.0003 42.7034C19.1478 42.7034 15.5445 40.6526 13.5704 37.3367C13.3595 37.0109 13.1487 36.6276 12.9762 36.2059C12.3245 34.8451 11.9795 33.2926 11.9795 31.6826C11.9795 25.6067 16.9245 20.6617 23.0003 20.6617C29.0762 20.6617 34.0212 25.6067 34.0212 31.6826C34.0212 33.3117 33.6762 34.8451 32.9862 36.2634C32.8329 36.6276 32.622 37.0109 32.392 37.3751C30.4562 40.6526 26.8528 42.7034 23.0003 42.7034ZM23.0003 23.5367C18.5153 23.5367 14.8545 27.1976 14.8545 31.6826C14.8545 32.8709 15.1037 33.9826 15.5828 34.9984C15.7362 35.3242 15.8703 35.5926 16.0236 35.8417C17.4803 38.3142 20.1445 39.8284 22.9811 39.8284C25.8178 39.8284 28.482 38.3142 29.9195 35.8801C30.092 35.5926 30.2454 35.3242 30.3604 35.0559C30.8779 34.0017 31.127 32.8901 31.127 31.7017C31.1461 27.1976 27.4853 23.5367 23.0003 23.5367Z" fill="#292D32"/>
<path d="M21.9074 35.0174C21.5432 35.0174 21.1791 34.8832 20.8916 34.5957L18.994 32.6982C18.4382 32.1424 18.4382 31.2224 18.994 30.6666C19.5499 30.1107 20.4699 30.1107 21.0257 30.6666L21.9458 31.5866L25.0124 28.7499C25.6066 28.2132 26.5074 28.2516 27.044 28.8266C27.5807 29.4016 27.5424 30.3216 26.9674 30.8582L22.8849 34.6341C22.5974 34.8832 22.2524 35.0174 21.9074 35.0174Z" fill="#292D32"/>
</svg>
