<svg width="16" height="16" viewBox="0 0 16 16" fill="none" xmlns="http://www.w3.org/2000/svg">
<path fill-rule="evenodd" clip-rule="evenodd" d="M12.0189 6.67867L9.3239 3.98367L11.2719 2.03467L13.9659 4.72867L12.0189 6.67867ZM15.4039 3.33767L15.4029 3.33667L12.6649 0.598675C11.9239 -0.140325 10.6509 -0.175325 9.9489 0.529675L0.952896 9.52567C0.626896 9.85067 0.424896 10.2827 0.382896 10.7397L0.00389602 14.9097C-0.022104 15.2047 0.082896 15.4967 0.292896 15.7067C0.481896 15.8957 0.736896 15.9997 0.999896 15.9997C1.0309 15.9997 1.0609 15.9987 1.0909 15.9957L5.2609 15.6167C5.7189 15.5747 6.1499 15.3737 6.4749 15.0487L15.4719 6.05167C16.1999 5.32167 16.1689 4.10367 15.4039 3.33767Z" fill="#FA441D"/>
</svg>
