<svg width="22" height="19" viewBox="0 0 22 19" fill="none" xmlns="http://www.w3.org/2000/svg">
<path d="M7.34991 0.999906C8.52991 0.829906 9.77991 2.11991 10.1399 3.89991C10.4999 5.66991 9.84991 7.24991 8.66991 7.42991C7.49991 7.60991 6.23991 6.31991 5.86991 4.53991C5.49991 2.76991 6.16991 1.18991 7.34991 0.999906ZM14.4999 0.999906C15.6899 1.18991 16.3499 2.76991 15.9999 4.53991C15.6199 6.31991 14.3699 7.60991 13.1899 7.42991C11.9999 7.24991 11.3499 5.66991 11.7199 3.89991C12.0799 2.11991 13.3299 0.829906 14.4999 0.999906ZM1.99991 5.59991C3.13991 5.10991 4.68991 5.99991 5.49991 7.54991C6.25991 9.12991 5.99991 10.7899 4.86991 11.2799C3.73991 11.7699 2.19991 10.8899 1.40991 9.31991C0.619906 7.74991 0.899906 6.07991 1.99991 5.59991ZM19.9999 5.59991C21.0999 6.07991 21.3799 7.74991 20.5899 9.31991C19.7999 10.8899 18.2599 11.7699 17.1299 11.2799C15.9999 10.7899 15.7399 9.12991 16.4999 7.54991C17.3099 5.99991 18.8599 5.10991 19.9999 5.59991ZM18.3299 16.3799C18.3699 17.3199 17.6499 18.3599 16.7899 18.7499C14.9999 19.5699 12.8799 17.8699 10.8899 17.8699C8.89991 17.8699 6.75991 19.6399 4.99991 18.7499C3.99991 18.2599 3.30991 16.9599 3.43991 15.8799C3.61991 14.3899 5.40991 13.5899 6.46991 12.4999C7.87991 11.0899 8.87991 8.43991 10.8899 8.43991C12.8899 8.43991 13.9499 11.0499 15.2999 12.4999C16.4099 13.7199 18.2599 14.7499 18.3299 16.3799Z" fill="black"/>
</svg>
